<?xml version="1.0" encoding="utf-8"?>
<!-- Generator: Adobe Illustrator 26.0.1, SVG Export Plug-In . SVG Version: 6.00 Build 0)  -->
<svg version="1.1" id="logo" xmlns="http://www.w3.org/2000/svg" xmlns:xlink="http://www.w3.org/1999/xlink" x="0px" y="0px"
	 viewBox="0 0 512 512" style="enable-background:new 0 0 512 512;" xml:space="preserve">
<style type="text/css">
	.st0{fill:#FFFFFF;}
</style>
<path class="st0" d="M411.49,379.36c-29.57,27.74-76.14,26.27-104.78-2.45L199.27,269.26c-6.61-6.63-10.33-15.62-10.33-24.99
	c0-9.37,3.72-18.36,10.33-24.99l132.58,132.84c15,15.02,39.29,16.12,55.04,1.9c4.01-3.61,7.24-8,9.5-12.9
	c2.26-4.9,3.5-10.21,3.64-15.61c0.14-5.4-0.81-10.77-2.81-15.78c-2-5.01-4.99-9.57-8.8-13.39L267.86,175.56
	c-3.22-3.33-5.01-7.8-4.97-12.44c0.04-4.64,1.89-9.08,5.17-12.36c3.27-3.28,7.71-5.14,12.34-5.18c4.63-0.04,9.09,1.75,12.41,4.98
	l120.55,120.77c7.12,7.13,12.72,15.62,16.49,24.96c3.77,9.35,5.62,19.36,5.45,29.44c-0.17,10.08-2.37,20.02-6.46,29.23
	C424.75,364.19,418.85,372.48,411.49,379.36L411.49,379.36z"/>
<path class="st0" d="M360.72,416.79c-25.08,0-48.65-9.79-66.38-27.56l-29.92-29.97c-1.69,5.28-4.62,10.09-8.59,14.08
	c-6.56,6.57-15.28,10.23-24.56,10.3h-0.27c-9.18,0-17.86-3.52-24.44-9.92L85.82,252.75c-8.82-8.84-15.66-19.19-20.33-30.77
	c-4.67-11.58-6.93-23.78-6.71-36.26c0.21-12.49,2.89-24.6,7.96-36.01c5.08-11.43,12.27-21.54,21.38-30.05
	c16.96-15.92,39.23-24.68,62.69-24.68c25.08,0,48.65,9.79,66.38,27.56l29.91,29.97c1.69-5.28,4.62-10.09,8.6-14.08
	c6.56-6.57,15.28-10.23,24.55-10.3h0.28c9.17,0,17.85,3.52,24.43,9.92l120.74,120.96c8.82,8.84,15.66,19.19,20.33,30.77
	c4.67,11.58,6.93,23.78,6.71,36.27c-0.21,12.49-2.89,24.6-7.96,36.01c-5.08,11.43-12.27,21.54-21.38,30.05
	C406.45,408.02,384.18,416.79,360.72,416.79z M263.42,353.56c0.51,0,1,0.2,1.37,0.57l32.29,32.36
	c16.99,17.04,39.59,26.42,63.63,26.42c22.47,0,43.79-8.39,60.04-23.64c8.73-8.15,15.62-17.84,20.49-28.79
	c4.85-10.93,7.42-22.54,7.62-34.5l0,0c0.21-11.97-1.96-23.66-6.43-34.75c-4.47-11.09-11.02-21.01-19.48-29.48L302.24,140.81
	c-5.84-5.67-13.55-8.8-21.71-8.8h-0.26c-8.23,0.07-15.98,3.32-21.82,9.16c-4.28,4.28-7.2,9.64-8.44,15.5
	c-0.15,0.7-0.67,1.25-1.35,1.46c-0.68,0.2-1.42,0.01-1.92-0.49l-32.29-32.35c-16.99-17.04-39.59-26.42-63.63-26.42
	c-22.47,0-43.79,8.39-60.04,23.64c-8.73,8.15-15.62,17.84-20.49,28.79c-4.85,10.93-7.42,22.54-7.62,34.5
	c-0.2,11.96,1.96,23.65,6.43,34.75c4.47,11.1,11.02,21.01,19.48,29.48l120.72,120.94c5.83,5.67,13.55,8.8,21.72,8.8h0.26
	c8.24-0.07,15.99-3.32,21.83-9.16c4.27-4.29,7.18-9.65,8.44-15.5c0.15-0.7,0.67-1.25,1.35-1.45
	C263.06,353.59,263.24,353.56,263.42,353.56z"/>
<path class="st0" d="M100.04,132.41c29.57-27.74,76.14-26.27,104.78,2.45L312.26,242.5c6.61,6.63,10.33,15.62,10.33,24.99
	s-3.72,18.36-10.33,24.99L179.68,159.64c-15-15.02-39.29-16.12-55.04-1.9c-4.01,3.61-7.24,8-9.5,12.9
	c-2.26,4.9-3.5,10.21-3.64,15.61c-0.14,5.4,0.81,10.77,2.81,15.78c2,5.01,4.99,9.57,8.8,13.39L243.67,336.2
	c3.22,3.33,5.01,7.8,4.97,12.44c-0.04,4.64-1.89,9.08-5.17,12.36c-3.27,3.28-7.71,5.14-12.34,5.18c-4.63,0.04-9.09-1.75-12.41-4.98
	L98.18,240.42c-7.12-7.13-12.72-15.62-16.49-24.96c-3.77-9.35-5.62-19.36-5.45-29.44c0.17-10.08,2.37-20.02,6.46-29.23
	C86.78,147.58,92.68,139.29,100.04,132.41L100.04,132.41z"/>
</svg>
