<?xml version="1.0" encoding="utf-8"?>
<!-- Generator: Adobe Illustrator 26.0.1, SVG Export Plug-In . SVG Version: 6.00 Build 0)  -->
<svg version="1.1" id="Calque_1" xmlns="http://www.w3.org/2000/svg" xmlns:xlink="http://www.w3.org/1999/xlink" x="0px" y="0px"
	 viewBox="0 0 12 143" style="enable-background:new 0 0 12 143;" xml:space="preserve">
<style type="text/css">
	.st0{fill:#FFFFFF;}
</style>
<path class="st0" d="M10.52,7.05c-0.19-0.32-0.44-0.59-0.76-0.81C9.45,6.03,9.08,5.83,8.67,5.66C8.26,5.48,7.83,5.33,7.38,5.2
	c-0.45-0.14-0.9-0.27-1.35-0.4c-0.46-0.13-0.89-0.26-1.3-0.38c-0.42-0.13-0.78-0.28-1.1-0.45C3.32,3.8,3.07,3.59,2.89,3.33
	C2.7,3.08,2.61,2.79,2.61,2.46c0-0.36,0.08-0.68,0.23-0.96C3,1.23,3.19,1.02,3.4,0.88c0.22-0.14,0.47-0.25,0.76-0.34
	C4.45,0.46,4.7,0.41,4.89,0.38c0.2-0.02,0.39-0.03,0.58-0.03c0.59,0,1.1,0.01,1.55,0.03l0.87,1.86l2.44,0.05V0.1L5.47,0
	c-0.25,0-0.49,0-0.7,0.01C4.55,0.02,4.3,0.04,4.01,0.07C3.73,0.1,3.46,0.14,3.23,0.18c-0.24,0.05-0.49,0.11-0.76,0.2
	c-0.26,0.08-0.5,0.18-0.71,0.29C1.55,0.79,1.35,0.93,1.15,1.1C0.96,1.27,0.79,1.46,0.66,1.67S0.43,2.13,0.35,2.41
	C0.27,2.69,0.23,3,0.23,3.34c0,0.55,0.15,1.03,0.45,1.43c0.3,0.4,0.69,0.72,1.16,0.94C2.32,5.94,2.85,6.13,3.42,6.3
	C4,6.47,4.57,6.64,5.14,6.8C5.7,6.97,6.23,7.12,6.71,7.26C7.2,7.4,7.59,7.62,7.89,7.92c0.3,0.29,0.45,0.64,0.45,1.06
	c0,0.31-0.06,0.59-0.16,0.84c-0.11,0.25-0.24,0.46-0.4,0.61c-0.15,0.15-0.34,0.29-0.55,0.4c-0.22,0.12-0.42,0.2-0.6,0.25
	c-0.17,0.05-0.36,0.09-0.56,0.12c-0.19,0.03-0.32,0.04-0.39,0.04c-0.07,0.01-0.12,0.01-0.16,0.01l-0.29,0.01H5.08
	c-0.17,0.01-0.39,0-0.66-0.01c-0.33-0.02-0.7-0.06-1.11-0.11c-0.39-0.04-0.81-0.13-1.27-0.25c-0.46-0.12-0.88-0.27-1.26-0.46
	l-0.15,0.35c0.87,0.34,1.68,0.57,2.42,0.68c0.74,0.11,1.56,0.17,2.47,0.17H5.7c0.12-0.01,0.29-0.02,0.49-0.04
	c0.2-0.02,0.44-0.05,0.7-0.09c0.27-0.04,0.54-0.09,0.84-0.18c0.29-0.08,0.58-0.18,0.87-0.29c0.29-0.11,0.57-0.25,0.83-0.43
	c0.27-0.18,0.5-0.38,0.7-0.61c0.21-0.22,0.37-0.49,0.49-0.81s0.18-0.66,0.18-1.04C10.8,7.74,10.71,7.37,10.52,7.05z"/>
<path class="st0" d="M3.32,21.69c0.22-0.42,0.47-0.76,0.77-1.04c0.3-0.28,0.61-0.47,0.93-0.6c0.32-0.12,0.66-0.18,1.02-0.18
	l1.55,0.03l0.87,1.84l2.44,0.04v-2.19L6.04,19.5c-0.64,0-1.25,0.07-1.82,0.2c-0.57,0.14-1.11,0.35-1.61,0.66
	c-0.51,0.3-0.94,0.67-1.3,1.11s-0.65,0.99-0.86,1.65c-0.21,0.65-0.31,1.39-0.31,2.19c0,0.81,0.1,1.54,0.31,2.19
	c0.21,0.66,0.5,1.2,0.86,1.65c0.36,0.44,0.79,0.81,1.3,1.11c0.5,0.3,1.04,0.52,1.61,0.65c0.57,0.14,1.18,0.21,1.82,0.21h0.37
	c0.17,0.01,0.38,0,0.65-0.02c0.33-0.02,0.68-0.06,1.06-0.11c0.39-0.05,0.84-0.13,1.34-0.26c0.5-0.12,0.97-0.27,1.42-0.45l-0.15-0.35
	c-0.39,0.17-0.82,0.31-1.29,0.42c-0.46,0.12-0.89,0.2-1.26,0.25c-0.38,0.04-0.74,0.08-1.09,0.11c-0.26,0.02-0.47,0.03-0.62,0.03
	H6.33c-0.16-0.01-0.26-0.01-0.29,0c-0.35,0-0.69-0.06-1.01-0.18c-0.33-0.12-0.63-0.32-0.93-0.6s-0.55-0.62-0.77-1.03
	s-0.39-0.92-0.52-1.54c-0.13-0.62-0.2-1.32-0.2-2.08s0.07-1.45,0.2-2.08C2.93,22.61,3.1,22.1,3.32,21.69z"/>
<path class="st0" d="M7.24,45.81c1-0.16,1.81-0.51,2.41-1.06c0.61-0.55,0.91-1.3,0.91-2.26c0-0.58-0.12-1.1-0.36-1.55
	c-0.25-0.45-0.58-0.8-1.01-1.07c-0.43-0.26-0.91-0.46-1.44-0.59s-1.11-0.19-1.74-0.19H1.86l-1.8,0.94v10.42h2.27v-4.54H4.4
	l3.67,4.54l2.91-0.01L7.24,45.81z M5.89,45.43c-0.27,0.06-0.55,0.09-0.83,0.09H2.33v-6.06h2.73c0.28,0,0.56,0.03,0.83,0.09
	s0.54,0.17,0.81,0.32c0.27,0.14,0.51,0.33,0.72,0.55c0.2,0.22,0.37,0.51,0.5,0.87c0.12,0.36,0.19,0.76,0.19,1.2
	c0,0.45-0.07,0.85-0.19,1.21c-0.13,0.35-0.3,0.64-0.5,0.86c-0.21,0.23-0.45,0.41-0.72,0.56S6.16,45.37,5.89,45.43z"/>
<path class="st0" d="M11.07,62.06c-0.21-0.66-0.49-1.22-0.85-1.67c-0.36-0.45-0.79-0.82-1.29-1.12s-1.03-0.52-1.6-0.66
	S6.15,58.4,5.51,58.4s-1.24,0.07-1.81,0.21s-1.1,0.36-1.6,0.66c-0.5,0.3-0.93,0.67-1.29,1.12c-0.36,0.45-0.65,1.01-0.86,1.67
	c-0.2,0.66-0.31,1.4-0.31,2.21c0,0.82,0.11,1.56,0.31,2.22c0.21,0.66,0.5,1.22,0.86,1.67s0.79,0.82,1.29,1.12s1.03,0.52,1.6,0.66
	c0.57,0.14,1.17,0.21,1.81,0.21s1.25-0.07,1.82-0.21s1.1-0.36,1.6-0.66s0.93-0.67,1.29-1.12c0.36-0.45,0.64-1.01,0.85-1.67
	c0.21-0.66,0.32-1.4,0.32-2.22C11.39,63.46,11.28,62.72,11.07,62.06z M8.64,66.8c-0.2,0.73-0.46,1.3-0.79,1.72
	c-0.32,0.42-0.68,0.74-1.08,0.94c-0.39,0.2-0.81,0.31-1.26,0.31c-0.35,0-0.69-0.06-1.01-0.19c-0.32-0.12-0.63-0.32-0.92-0.6
	c-0.29-0.29-0.55-0.63-0.76-1.05C2.6,67.52,2.43,67,2.3,66.37c-0.13-0.62-0.19-1.32-0.19-2.1c0-0.77,0.06-1.47,0.19-2.09
	c0.13-0.63,0.3-1.15,0.52-1.57c0.21-0.41,0.47-0.76,0.76-1.04c0.29-0.28,0.6-0.48,0.92-0.61c0.32-0.12,0.66-0.18,1.01-0.18
	s0.69,0.06,1.01,0.18s0.63,0.32,0.93,0.6c0.3,0.29,0.55,0.64,0.77,1.05c0.21,0.42,0.38,0.94,0.51,1.57c0.13,0.62,0.2,1.32,0.2,2.09
	C8.93,65.23,8.83,66.07,8.64,66.8z"/>
<path class="st0" d="M7.6,87.28l-0.9,1.8H3.43V78.09H1.16v10.42l1.79,0.95h6.92v-2.18C9.87,87.28,7.6,87.28,7.6,87.28z"/>
<path class="st0" d="M7.6,106.78l-0.9,1.8H3.43V97.59H1.16v10.42l1.79,0.95h6.92v-2.18C9.87,106.78,7.6,106.78,7.6,106.78z"/>
<g>
	<path class="st0" d="M6.21,122.1v19.3c-0.22,0.53-0.44,1.07-0.66,1.6c-0.24-0.53-0.48-1.07-0.72-1.6v-18.94l0.66-0.36
		C5.49,122.1,6.21,122.1,6.21,122.1z"/>
	<polygon class="st0" points="5.59,142.39 7.9,140.08 7.26,138.17 8.87,136.56 10.41,138.11 5.52,143 	"/>
	<polygon class="st0" points="5.45,142.39 3.14,140.08 3.78,138.17 2.17,136.56 0.62,138.11 5.52,143 	"/>
</g>
</svg>
